<?xml version="1.0" standalone="no"?>
<!DOCTYPE svg PUBLIC "-//W3C//DTD SVG 20010904//EN"
 "http://www.w3.org/TR/2001/REC-SVG-20010904/DTD/svg10.dtd">
<svg version="1.0" xmlns="http://www.w3.org/2000/svg"
 width="512.000000pt" height="512.000000pt" viewBox="0 0 512.000000 512.000000"
 preserveAspectRatio="xMidYMid meet">
<metadata>
Created by potrace 1.11, written by Peter Selinger 2001-2013
</metadata>
<g transform="translate(0.000000,512.000000) scale(0.100000,-0.100000)"
fill="#000000" stroke="none">
<path d="M642 4727 c-6 -7 -6 -22 -2 -33 5 -12 231 -247 504 -523 378 -384
501 -515 520 -554 33 -65 23 -77 -41 -46 -35 17 -147 119 -411 378 -598 585
-688 671 -711 671 -14 0 -21 -6 -21 -20 0 -12 186 -223 478 -541 262 -286 485
-534 495 -549 24 -38 38 -88 26 -96 -5 -3 -30 5 -56 18 -34 17 -178 158 -551
538 -278 283 -514 519 -525 523 -29 11 -43 -7 -30 -35 6 -13 217 -257 468
-543 251 -286 467 -538 480 -560 47 -79 32 -99 -41 -52 -19 12 -236 240 -482
506 -246 267 -465 504 -487 528 -22 23 -52 45 -68 49 -25 6 -27 4 -27 -26 0
-26 66 -112 439 -570 242 -296 457 -562 479 -592 156 -212 354 -300 641 -285
l106 5 40 -42 c108 -112 420 -471 420 -482 0 -7 -366 -384 -812 -838 l-813
-825 0 -46 c0 -58 18 -102 61 -144 63 -63 168 -89 245 -60 19 7 170 170 444
481 297 336 516 572 770 830 l355 360 226 -253 c329 -370 874 -1000 952 -1101
140 -181 265 -286 400 -338 102 -40 181 -49 225 -26 45 23 55 49 50 127 -7 91
-74 230 -150 311 -63 68 -389 378 -1013 967 -253 238 -473 447 -490 462 l-29
29 57 58 58 59 52 -9 c75 -14 165 -1 238 33 52 25 94 62 254 222 284 284 468
496 618 711 34 49 104 145 155 213 282 374 407 615 419 803 7 112 -10 160 -57
160 -18 0 -45 -9 -61 -21 -16 -11 -467 -464 -1001 -1007 -535 -543 -975 -987
-978 -987 -13 0 -451 462 -456 481 -3 11 5 54 18 95 33 107 31 224 -4 301 -35
77 -108 188 -159 243 -74 81 -1160 1040 -1184 1047 -14 3 -28 1 -33 -5z"/>
</g>
</svg>
